<?xml version="1.0" encoding="UTF-8" standalone="no"?>
<!-- Created with Inkscape (http://www.inkscape.org/) -->

<svg
   width="210mm"
   height="297mm"
   viewBox="0 0 210 297"
   version="1.1"
   id="svg5"
   inkscape:version="1.1.2 (0a00cf5339, 2022-02-04)"
   sodipodi:docname="tu_hoa.svg"
   xmlns:inkscape="http://www.inkscape.org/namespaces/inkscape"
   xmlns:sodipodi="http://sodipodi.sourceforge.net/DTD/sodipodi-0.dtd"
   xmlns="http://www.w3.org/2000/svg"
   xmlns:svg="http://www.w3.org/2000/svg">
  <sodipodi:namedview
     id="namedview7"
     pagecolor="#ffffff"
     bordercolor="#666666"
     borderopacity="1.0"
     inkscape:pageshadow="2"
     inkscape:pageopacity="0.0"
     inkscape:pagecheckerboard="0"
     inkscape:document-units="mm"
     showgrid="false"
     inkscape:zoom="0.88372615"
     inkscape:cx="337.77432"
     inkscape:cy="464.51041"
     inkscape:window-width="1366"
     inkscape:window-height="704"
     inkscape:window-x="0"
     inkscape:window-y="0"
     inkscape:window-maximized="1"
     inkscape:current-layer="layer1" />
  <defs
     id="defs2" />
  <g
     inkscape:groupmode="layer"
     id="layer2"
     inkscape:label="Layer 2">
    <rect
       style="fill:#fffbff;fill-opacity:1;stroke:#827568;stroke-width:0.0264583;stroke-opacity:1"
       id="rect16466"
       width="50"
       height="50"
       x="78.090683"
       y="59.4007"
       inkscape:export-filename="/home/hint/Lab/F/occult_app/packages/lasotuvi_library/assets/images/tu_hoa.png"
       inkscape:export-xdpi="42.481701"
       inkscape:export-ydpi="42.481701" />
  </g>
  <g
     inkscape:label="Layer 1"
     inkscape:groupmode="layer"
     id="layer1">
    <text
       xml:space="preserve"
       style="font-size:6.35px;line-height:1.25;font-family:'Playfair Display';letter-spacing:0px;word-spacing:0px;stroke-width:0.264583;-inkscape-font-specification:'Playfair Display Semi-Bold';font-weight:600;font-style:normal;font-stretch:normal;font-variant:normal;fill:#865300;fill-opacity:1;stroke:#865300;stroke-opacity:1"
       x="82.779251"
       y="76.693108"
       id="text2652"
       inkscape:export-filename="/home/hint/Lab/F/occult_app/packages/lasotuvi_library/assets/images/tu_hoa.png"
       inkscape:export-xdpi="42.481701"
       inkscape:export-ydpi="42.481701"><tspan
         sodipodi:role="line"
         style="stroke-width:0.264583;-inkscape-font-specification:'Playfair Display Semi-Bold';font-family:'Playfair Display';font-weight:600;font-style:normal;font-stretch:normal;font-variant:normal;fill:#865300;fill-opacity:1;stroke:#865300;stroke-opacity:1"
         x="82.779251"
         y="76.693108"
         id="tspan11002">LỘC</tspan></text>
    <text
       xml:space="preserve"
       style="font-size:6.35px;line-height:1.25;font-family:'Playfair Display';letter-spacing:0px;word-spacing:0px;stroke-width:0.264583;-inkscape-font-specification:'Playfair Display Semi-Bold';font-weight:600;font-style:normal;font-stretch:normal;font-variant:normal;fill:#865300;fill-opacity:1;stroke:#865300;stroke-opacity:1"
       x="102.58233"
       y="76.72451"
       id="text2652-1"
       inkscape:export-filename="/home/hint/Lab/F/occult_app/packages/lasotuvi_library/assets/images/tu_hoa.png"
       inkscape:export-xdpi="42.481701"
       inkscape:export-ydpi="42.481701"><tspan
         sodipodi:role="line"
         style="stroke-width:0.264583;-inkscape-font-specification:'Playfair Display Semi-Bold';font-family:'Playfair Display';font-weight:600;font-style:normal;font-stretch:normal;font-variant:normal;fill:#865300;fill-opacity:1;stroke:#865300;stroke-opacity:1"
         x="102.58233"
         y="76.72451"
         id="tspan11002-7">QUYỀN</tspan></text>
    <text
       xml:space="preserve"
       style="font-style:normal;font-variant:normal;font-weight:600;font-stretch:normal;font-size:6.35px;line-height:1.25;font-family:'Playfair Display';-inkscape-font-specification:'Playfair Display Semi-Bold';letter-spacing:0px;word-spacing:0px;stroke-width:0.264583;fill:#865300;fill-opacity:1;stroke:#865300;stroke-opacity:1"
       x="112.49167"
       y="95.430908"
       id="text2652-1-6"
       inkscape:export-filename="/home/hint/Lab/F/occult_app/packages/lasotuvi_library/assets/images/tu_hoa.png"
       inkscape:export-xdpi="42.481701"
       inkscape:export-ydpi="42.481701"><tspan
         sodipodi:role="line"
         style="font-style:normal;font-variant:normal;font-weight:600;font-stretch:normal;font-family:'Playfair Display';-inkscape-font-specification:'Playfair Display Semi-Bold';stroke-width:0.264583;fill:#865300;fill-opacity:1;stroke:#865300;stroke-opacity:1"
         x="112.49167"
         y="95.430908"
         id="tspan11002-7-2">KỊ</tspan></text>
    <text
       xml:space="preserve"
       style="font-size:6.35px;line-height:1.25;font-family:'Playfair Display';letter-spacing:0px;word-spacing:0px;stroke-width:0.264583;-inkscape-font-specification:'Playfair Display Semi-Bold';font-weight:600;font-style:normal;font-stretch:normal;font-variant:normal;fill:#865300;fill-opacity:1;stroke:#865300;stroke-opacity:1"
       x="81.949783"
       y="95.578224"
       id="text2652-1-5"
       inkscape:export-filename="/home/hint/Lab/F/occult_app/packages/lasotuvi_library/assets/images/tu_hoa.png"
       inkscape:export-xdpi="42.481701"
       inkscape:export-ydpi="42.481701"><tspan
         sodipodi:role="line"
         style="stroke-width:0.264583;-inkscape-font-specification:'Playfair Display Semi-Bold';font-family:'Playfair Display';font-weight:600;font-style:normal;font-stretch:normal;font-variant:normal;fill:#865300;fill-opacity:1;stroke:#865300;stroke-opacity:1"
         x="81.949783"
         y="95.578224"
         id="tspan11002-7-9">KHOA</tspan></text>
    <rect
       style="fill:#fffbff;fill-opacity:1;stroke:#827568;stroke-width:0.0264583;stroke-opacity:1"
       id="rect16466-5"
       width="50"
       height="50"
       x="78.483131"
       y="122.14922"
       inkscape:export-filename="/home/hint/Lab/F/occult_app/packages/lasotuvi_library/assets/images/tu_hoa.png"
       inkscape:export-xdpi="152.31944"
       inkscape:export-ydpi="152.31944" />
    <g
       aria-label="LỘC"
       id="text2652-7"
       style="font-weight:600;font-size:6.35px;line-height:1.25;font-family:'Playfair Display';-inkscape-font-specification:'Playfair Display Semi-Bold';letter-spacing:0px;word-spacing:0px;fill:#865300;stroke:#865300;stroke-width:0.264583"
       inkscape:export-filename="/home/hint/Lab/F/occult_app/packages/lasotuvi_library/assets/images/tu_hoa.png"
       inkscape:export-xdpi="152.31944"
       inkscape:export-ydpi="152.31944">
      <path
         d="m 85.273549,134.94582 v 0.127 q -0.2159,0.006 -0.3302,0.0508 -0.10795,0.0381 -0.14605,0.1524 -0.0381,0.10795 -0.0381,0.3429 v 3.2004 q 0,0.2032 0.03175,0.31115 0.0381,0.1016 0.13335,0.13335 0.09525,0.0317 0.27305,0.0317 h 0.36195 q 0.24765,0 0.4318,-0.0889 0.1905,-0.0889 0.3302,-0.26035 0.1397,-0.17145 0.2286,-0.4191 0.0889,-0.254 0.127,-0.5715 h 0.14605 q -0.01905,0.20955 -0.01905,0.5461 0,0.1397 0.0063,0.40005 0.0127,0.26035 0.0381,0.53975 -0.32385,-0.0127 -0.73025,-0.0127 -0.4064,-0.006 -0.7239,-0.006 -0.1524,0 -0.38735,0 -0.23495,0 -0.514349,0.006 -0.27305,0 -0.5588,0.006 -0.2794,0 -0.5334,0.006 v -0.127 q 0.20955,-0.0127 0.31115,-0.0508 0.10795,-0.0381 0.1397,-0.1524 0.0381,-0.1143 0.0381,-0.3429 v -3.1496 q 0,-0.23495 -0.0381,-0.3429 -0.03175,-0.1143 -0.1397,-0.1524 -0.1016,-0.0444 -0.31115,-0.0508 v -0.127 q 0.15875,0.006 0.4064,0.0127 0.24765,0.006 0.5334,0.006 0.26035,0 0.514349,-0.006 0.254,-0.006 0.4191,-0.0127 z"
         id="path912" />
      <path
         d="m 89.464541,134.85692 q 0.6477,0 1.13665,0.27305 0.48895,0.27305 0.75565,0.7874 0.27305,0.508 0.27305,1.23825 0,0.7112 -0.2794,1.2446 -0.27305,0.5334 -0.76835,0.83185 -0.48895,0.29845 -1.12395,0.29845 -0.6477,0 -1.13665,-0.27305 -0.48895,-0.27305 -0.762,-0.7874 -0.2667,-0.51435 -0.2667,-1.23825 0,-0.7112 0.2794,-1.2446 0.2794,-0.5334 0.76835,-0.83185 0.48895,-0.29845 1.12395,-0.29845 z m -0.0254,0.1143 q -0.37465,0 -0.65405,0.28575 -0.27305,0.28575 -0.42545,0.7874 -0.1524,0.50165 -0.1524,1.16205 0,0.6731 0.17145,1.17475 0.17145,0.4953 0.46355,0.76835 0.2921,0.2667 0.64135,0.2667 0.37465,0 0.6477,-0.28575 0.2794,-0.28575 0.4318,-0.7874 0.1524,-0.508 0.1524,-1.16205 0,-0.67945 -0.17145,-1.17475 -0.17145,-0.4953 -0.46355,-0.762 -0.28575,-0.27305 -0.64135,-0.27305 z m 0.06985,-1.4478 q 0.1778,0.2667 0.51435,0.5207 0.33655,0.24765 0.7493,0.4191 l -0.03175,0.0889 q -0.4064,-0.0762 -0.79375,-0.1905 -0.38735,-0.1143 -0.6223,-0.2286 -0.1905,0.1143 -0.51435,0.2286 -0.3175,0.1143 -0.6477,0.1905 l -0.03175,-0.0889 q 0.41275,-0.1651 0.74295,-0.4191 0.33655,-0.254 0.5207,-0.5207 z m -0.0381,7.09295 q -0.19685,0 -0.3175,-0.10795 -0.12065,-0.1016 -0.12065,-0.28575 0,-0.1778 0.1143,-0.2921 0.1143,-0.1143 0.3302,-0.1143 0.2032,0 0.3175,0.10795 0.12065,0.1143 0.12065,0.2921 0,0.18415 -0.127,0.2921 -0.12065,0.10795 -0.3175,0.10795 z"
         id="path914" />
      <path
         d="m 94.385789,134.85692 q 0.4191,0 0.6858,0.127 0.27305,0.12065 0.4826,0.28575 0.127,0.0953 0.1905,0.0254 0.06985,-0.0762 0.09525,-0.34925 h 0.14605 q -0.0127,0.2413 -0.01905,0.59055 -0.0063,0.34925 -0.0063,0.92075 h -0.14605 q -0.0381,-0.28575 -0.08255,-0.47625 -0.04445,-0.19685 -0.127,-0.33655 -0.0762,-0.1397 -0.2159,-0.2667 -0.17145,-0.1905 -0.41275,-0.2794 -0.23495,-0.0952 -0.4953,-0.0952 -0.3302,0 -0.57785,0.1778 -0.2413,0.17145 -0.4064,0.47625 -0.15875,0.29845 -0.2413,0.6985 -0.0762,0.40005 -0.0762,0.8509 0,0.46355 0.08255,0.8636 0.0889,0.3937 0.254,0.69215 0.17145,0.2921 0.4191,0.4572 0.254,0.1651 0.5842,0.1651 0.23495,0 0.4826,-0.0889 0.24765,-0.0889 0.4064,-0.27305 0.20955,-0.1905 0.28575,-0.45085 0.0762,-0.2667 0.12065,-0.70485 h 0.14605 q 0,0.5969 0.0063,0.9652 0.0063,0.36195 0.01905,0.6096 h -0.14605 q -0.0254,-0.27305 -0.0889,-0.3429 -0.05715,-0.0698 -0.19685,0.0191 -0.23495,0.1651 -0.50165,0.2921 -0.26035,0.12065 -0.6731,0.12065 -0.6477,0 -1.13665,-0.27305 -0.48895,-0.27305 -0.762,-0.7874 -0.2667,-0.51435 -0.2667,-1.23825 0,-0.7112 0.2794,-1.2446 0.2794,-0.5334 0.76835,-0.83185 0.48895,-0.29845 1.12395,-0.29845 z"
         id="path916" />
    </g>
    <g
       aria-label="QUYỀN"
       id="text2652-1-1"
       style="font-weight:600;font-size:6.35px;line-height:1.25;font-family:'Playfair Display';-inkscape-font-specification:'Playfair Display Semi-Bold';letter-spacing:0px;word-spacing:0px;fill:#865300;stroke:#865300;stroke-width:0.264583"
       inkscape:export-filename="/home/hint/Lab/F/occult_app/packages/lasotuvi_library/assets/images/tu_hoa.png"
       inkscape:export-xdpi="152.31944"
       inkscape:export-ydpi="152.31944">
      <path
         d="m 107.79443,139.46666 0.1016,0.0381 q -0.0571,0.3175 -0.1651,0.5461 -0.1016,0.2286 -0.26035,0.3556 -0.127,0.10795 -0.33655,0.18415 -0.20955,0.0762 -0.4953,0.0762 -0.3429,0 -0.6731,-0.10795 -0.32385,-0.10795 -0.66675,-0.2667 -0.33655,-0.15875 -0.7239,-0.29845 -0.0444,-0.0127 -0.0889,-0.0254 -0.0381,-0.0127 -0.0699,-0.019 -0.12065,0.0571 -0.26035,0.0889 -0.1397,0.0317 -0.2667,0.0317 -0.127,0 -0.20955,-0.0381 -0.0825,-0.0381 -0.0825,-0.1143 0,-0.15875 0.3429,-0.15875 0.22225,0 0.47625,0.0762 0.23495,-0.0635 0.40005,-0.14605 0.17145,-0.0762 0.34925,-0.14605 0.18415,-0.0699 0.4318,-0.0889 l 0.006,0.1016 q -0.1905,0.019 -0.33655,0.0698 -0.14605,0.0572 -0.2921,0.12065 -0.1397,0.0635 -0.33655,0.12065 0.41275,0.0444 0.79375,0.0889 0.38735,0.0444 0.71755,0.0635 0.33655,0.0254 0.60325,0.006 0.41275,-0.0318 0.65405,-0.15875 0.2413,-0.127 0.38735,-0.40005 z m -2.35585,-4.57835 q 0.6477,0 1.13665,0.27305 0.48895,0.27305 0.75565,0.7874 0.27305,0.508 0.27305,1.23825 0,0.7112 -0.2794,1.2446 -0.27305,0.5334 -0.76835,0.83185 -0.48895,0.29845 -1.12395,0.29845 -0.6477,0 -1.13665,-0.27305 -0.48895,-0.27305 -0.762,-0.7874 -0.2667,-0.51435 -0.2667,-1.23825 0,-0.7112 0.2794,-1.2446 0.2794,-0.5334 0.76835,-0.83185 0.48895,-0.29845 1.12395,-0.29845 z m -0.0254,0.1143 q -0.37465,0 -0.65405,0.28575 -0.27305,0.28575 -0.42545,0.7874 -0.1524,0.50165 -0.1524,1.16205 0,0.6731 0.17145,1.17475 0.17145,0.4953 0.46355,0.76835 0.2921,0.2667 0.64135,0.2667 0.37465,0 0.6477,-0.28575 0.2794,-0.28575 0.4318,-0.7874 0.1524,-0.508 0.1524,-1.16205 0,-0.67945 -0.17145,-1.17475 -0.17145,-0.4953 -0.46355,-0.762 -0.28575,-0.27305 -0.64135,-0.27305 z"
         id="path919" />
      <path
         d="m 112.08321,134.97721 v 0.127 q -0.2032,0.019 -0.31115,0.0952 -0.1016,0.0699 -0.1397,0.2286 -0.0381,0.1524 -0.0381,0.43815 v 1.75895 q 0,0.42545 -0.0572,0.762 -0.0508,0.33655 -0.2032,0.5842 -0.15875,0.2667 -0.47624,0.4318 -0.31115,0.15875 -0.762,0.15875 -0.3048,0 -0.60325,-0.0699 -0.2921,-0.0699 -0.51435,-0.26035 -0.19685,-0.1651 -0.31115,-0.37465 -0.10795,-0.20955 -0.14605,-0.50165 -0.0381,-0.29845 -0.0381,-0.7112 v -1.9939 q 0,-0.23495 -0.0381,-0.3429 -0.0318,-0.1143 -0.1397,-0.1524 -0.1016,-0.0445 -0.31115,-0.0508 v -0.127 q 0.15875,0.006 0.4064,0.0127 0.24765,0.006 0.5334,0.006 0.26035,0 0.51435,-0.006 0.254,-0.006 0.4191,-0.0127 v 0.127 q -0.2159,0.006 -0.3302,0.0508 -0.10795,0.0381 -0.14605,0.1524 -0.0381,0.10795 -0.0381,0.3429 v 2.2987 q 0,0.3175 0.0381,0.57785 0.0444,0.254 0.1397,0.43815 0.1016,0.18415 0.2794,0.2794 0.18415,0.0953 0.46355,0.0953 0.46355,0 0.71755,-0.20955 0.25399,-0.20955 0.35559,-0.5842 0.1016,-0.37465 0.1016,-0.8509 v -1.778 q 0,-0.31115 -0.0444,-0.47625 -0.0445,-0.1651 -0.1778,-0.2413 -0.12699,-0.0762 -0.38099,-0.0952 v -0.127 q 0.12065,0.006 0.31115,0.0127 0.19684,0.006 0.36194,0.006 0.15875,0 0.31115,-0.006 0.15875,-0.006 0.254,-0.0127 z"
         id="path921" />
      <path
         d="m 116.07101,134.97721 v 0.127 q -0.127,0.0381 -0.2667,0.19685 -0.1397,0.1524 -0.3048,0.47625 l -1.22555,2.43205 h -0.23495 l -1.4859,-2.7432 q -0.12065,-0.22225 -0.20955,-0.28575 -0.0889,-0.0699 -0.15875,-0.0699 v -0.13335 q 0.1524,0.006 0.3175,0.019 0.17145,0.006 0.3683,0.006 0.254,0 0.5461,-0.006 0.2921,-0.006 0.5461,-0.019 v 0.13335 q -0.15875,0 -0.28575,0.0254 -0.127,0.0254 -0.17145,0.10795 -0.0444,0.0825 0.0318,0.2413 l 1.0287,1.9685 -0.1524,0.1778 0.7239,-1.4351 q 0.20955,-0.4191 0.2159,-0.65405 0.0127,-0.23495 -0.13335,-0.3302 -0.1397,-0.1016 -0.40005,-0.10795 v -0.127 q 0.20955,0.006 0.3937,0.0127 0.1905,0.006 0.37465,0.006 0.1524,0 0.2667,-0.006 0.12065,-0.006 0.2159,-0.0127 z m -1.4097,2.3368 v 1.4859 q 0,0.2286 0.0381,0.3429 0.0381,0.1143 0.1397,0.1524 0.10795,0.0381 0.31115,0.0508 v 0.127 q -0.15875,-0.0127 -0.41275,-0.0127 -0.254,-0.006 -0.508,-0.006 -0.27305,0 -0.52705,0.006 -0.24765,0 -0.40005,0.0127 v -0.127 q 0.20955,-0.0127 0.31115,-0.0508 0.10795,-0.0381 0.1397,-0.1524 0.0381,-0.1143 0.0381,-0.3429 v -1.30175 l 0.4826,0.3937 z"
         id="path923" />
      <path
         d="m 119.6524,134.97721 q -0.0254,0.26035 -0.0381,0.508 -0.006,0.2413 -0.006,0.3683 0,0.12065 0.006,0.23495 0.006,0.10795 0.0127,0.18415 h -0.14605 q -0.0508,-0.43815 -0.1651,-0.6858 -0.1143,-0.254 -0.31115,-0.3556 -0.1905,-0.10795 -0.50165,-0.10795 h -0.34925 q -0.1905,0 -0.2921,0.0318 -0.1016,0.0317 -0.1397,0.13335 -0.0317,0.1016 -0.0317,0.31115 v 3.2512 q 0,0.2032 0.0317,0.31115 0.0381,0.1016 0.1397,0.13335 0.1016,0.0318 0.2921,0.0318 h 0.36195 q 0.32385,0 0.53975,-0.12065 0.22225,-0.12065 0.3556,-0.3937 0.13335,-0.2794 0.19685,-0.762 h 0.14605 q -0.0191,0.19685 -0.0191,0.508 0,0.13335 0.006,0.38735 0.0127,0.254 0.0381,0.52705 -0.32385,-0.0127 -0.73025,-0.0127 -0.4064,-0.006 -0.7239,-0.006 -0.14605,0 -0.38735,0 -0.23495,0 -0.51435,0.006 -0.27305,0 -0.5588,0.006 -0.2794,0 -0.5334,0.006 v -0.127 q 0.20955,-0.0127 0.31115,-0.0508 0.10795,-0.0381 0.1397,-0.1524 0.0381,-0.1143 0.0381,-0.3429 v -3.1496 q 0,-0.23495 -0.0381,-0.3429 -0.0318,-0.1143 -0.1397,-0.1524 -0.1016,-0.0445 -0.31115,-0.0508 v -0.127 q 0.254,0.006 0.5334,0.0127 0.28575,0 0.5588,0.006 0.2794,0 0.51435,0 0.2413,0 0.38735,0 0.2921,0 0.6604,0 0.37465,-0.006 0.66675,-0.019 z m -1.02235,2.1717 q 0,0 0,0.0635 0,0.0635 0,0.0635 h -1.1303 q 0,0 0,-0.0635 0,-0.0635 0,-0.0635 z m 0.18415,-0.8382 q -0.0254,0.36195 -0.0254,0.55245 0.006,0.1905 0.006,0.34925 0,0.15875 0.006,0.34925 0.006,0.1905 0.0318,0.55245 h -0.14605 q -0.0318,-0.2159 -0.1016,-0.4064 -0.0635,-0.19685 -0.20955,-0.31115 -0.1397,-0.12065 -0.4064,-0.12065 v -0.127 q 0.19685,0 0.3175,-0.0825 0.127,-0.0825 0.2032,-0.20955 0.0762,-0.13335 0.1143,-0.27305 0.0444,-0.14605 0.0635,-0.27305 z m -0.6731,-2.7559 q 0.1778,0.2667 0.51435,0.5207 0.33655,0.24765 0.7493,0.4191 l -0.0318,0.0889 q -0.4064,-0.0762 -0.79375,-0.1905 -0.38735,-0.1143 -0.6223,-0.2286 -0.1905,0.1143 -0.51435,0.2286 -0.3175,0.1143 -0.6477,0.1905 l -0.0318,-0.0889 q 0.41275,-0.1651 0.74295,-0.4191 0.33655,-0.254 0.5207,-0.5207 z m -0.6731,-1.39065 q 0.14605,0.0762 0.2667,0.20955 0.12065,0.127 0.29845,0.3048 0.1778,0.1778 0.47625,0.41275 l -0.0444,0.0825 q -0.3429,-0.14605 -0.5842,-0.2159 -0.2413,-0.0699 -0.41275,-0.12065 -0.1651,-0.0508 -0.31115,-0.13335 -0.1397,-0.0825 -0.1778,-0.2032 -0.0381,-0.12065 0.019,-0.23495 0.0635,-0.12065 0.19685,-0.14605 0.1397,-0.0317 0.27305,0.0445 z"
         id="path925" />
      <path
         d="m 124.42124,134.97721 v 0.127 q -0.2032,0.019 -0.31115,0.0952 -0.10795,0.0699 -0.14605,0.2286 -0.0318,0.1524 -0.0318,0.43815 v 3.62585 q -0.0571,-0.006 -0.127,-0.006 -0.0635,0 -0.1397,0.006 l -2.72415,-3.70205 v 2.7432 q 0,0.3048 0.0381,0.47625 0.0381,0.1651 0.1651,0.2413 0.13335,0.0698 0.40005,0.0952 v 0.127 q -0.12065,-0.0127 -0.31115,-0.0127 -0.1905,-0.006 -0.36195,-0.006 -0.1524,0 -0.31115,0.006 -0.1524,0 -0.254,0.0127 v -0.127 q 0.20955,-0.0254 0.31115,-0.0952 0.10795,-0.0699 0.1397,-0.2286 0.0381,-0.15875 0.0381,-0.43815 v -2.9337 q 0,-0.23495 -0.0381,-0.3429 -0.0318,-0.1143 -0.1397,-0.1524 -0.1016,-0.0445 -0.31115,-0.0508 v -0.127 q 0.1016,0.006 0.254,0.0127 0.15875,0.006 0.31115,0.006 0.14605,0 0.28575,-0.006 0.1397,-0.006 0.24765,-0.0127 l 2.38125,3.16865 v -2.22885 q 0,-0.31115 -0.0381,-0.47625 -0.0381,-0.1651 -0.1651,-0.2413 -0.127,-0.0762 -0.40005,-0.0952 v -0.127 q 0.12065,0.006 0.31115,0.0127 0.19685,0.006 0.36195,0.006 0.15875,0 0.31115,-0.006 0.15875,-0.006 0.254,-0.0127 z"
         id="path927" />
    </g>
    <g
       aria-label="KỊ"
       id="text2652-1-6-5"
       style="font-weight:600;font-size:6.35px;line-height:1.25;font-family:'Playfair Display';-inkscape-font-specification:'Playfair Display Semi-Bold';letter-spacing:0px;word-spacing:0px;fill:#865300;stroke:#865300;stroke-width:0.264583"
       inkscape:export-filename="/home/hint/Lab/F/occult_app/packages/lasotuvi_library/assets/images/tu_hoa.png"
       inkscape:export-xdpi="152.31944"
       inkscape:export-ydpi="152.31944">
      <path
         d="m 117.10687,153.68361 v 0.127 q -0.20955,0.0381 -0.42545,0.15875 -0.2159,0.12065 -0.4445,0.3937 l -1.20015,1.4732 0.28575,-0.4572 1.51765,2.286 q 0.1016,0.14605 0.20955,0.23495 0.10795,0.0889 0.2794,0.1524 v 0.127 q -0.19685,-0.0127 -0.45085,-0.0127 -0.254,-0.006 -0.46355,-0.006 -0.12065,0 -0.3048,0.006 -0.1778,0 -0.45085,0.0127 v -0.127 q 0.254,-0.0127 0.3048,-0.0699 0.0508,-0.0635 -0.0444,-0.2159 l -0.9271,-1.4605 q -0.1016,-0.1651 -0.18415,-0.24765 -0.0762,-0.0826 -0.15875,-0.10795 -0.0826,-0.0317 -0.2032,-0.0381 v -0.127 q 0.2667,-0.0127 0.47625,-0.1397 0.20955,-0.127 0.4191,-0.37465 l 0.45085,-0.56515 q 0.23495,-0.2794 0.28575,-0.47625 0.0508,-0.19685 -0.0572,-0.3048 -0.10795,-0.10795 -0.36195,-0.1143 v -0.127 q 0.1397,0.006 0.2794,0.0127 0.1397,0 0.2794,0.006 0.14605,0 0.3048,0 0.18415,0 0.3302,-0.006 0.14605,-0.006 0.254,-0.0127 z m -2.1463,0 v 0.127 q -0.2032,0.006 -0.31115,0.0508 -0.1016,0.0381 -0.1397,0.1524 -0.0381,0.10795 -0.0381,0.3429 v 3.1496 q 0,0.2286 0.0381,0.3429 0.0381,0.1143 0.1397,0.1524 0.10795,0.0381 0.31115,0.0508 v 0.127 q -0.15875,-0.0127 -0.4064,-0.0127 -0.24765,-0.006 -0.50165,-0.006 -0.28575,0 -0.5334,0.006 -0.24765,0 -0.4064,0.0127 v -0.127 q 0.20955,-0.0127 0.31115,-0.0508 0.10795,-0.0381 0.1397,-0.1524 0.0381,-0.1143 0.0381,-0.3429 v -3.1496 q 0,-0.23495 -0.0381,-0.3429 -0.0318,-0.1143 -0.1397,-0.1524 -0.1016,-0.0445 -0.31115,-0.0508 v -0.127 q 0.15875,0.006 0.4064,0.0127 0.24765,0.006 0.5334,0.006 0.254,0 0.50165,-0.006 0.24765,-0.006 0.4064,-0.0127 z"
         id="path930" />
      <path
         d="m 119.37382,153.68361 v 0.127 q -0.2032,0.006 -0.31115,0.0508 -0.1016,0.0381 -0.1397,0.1524 -0.0381,0.10795 -0.0381,0.3429 v 3.1496 q 0,0.2286 0.0381,0.3429 0.0381,0.1143 0.1397,0.1524 0.10795,0.0381 0.31115,0.0508 v 0.127 q -0.15875,-0.0127 -0.4064,-0.0127 -0.24765,-0.006 -0.50165,-0.006 -0.28575,0 -0.5334,0.006 -0.24765,0 -0.4064,0.0127 v -0.127 q 0.20955,-0.0127 0.31115,-0.0508 0.10795,-0.0381 0.1397,-0.1524 0.0381,-0.1143 0.0381,-0.3429 v -3.1496 q 0,-0.23495 -0.0381,-0.3429 -0.0318,-0.1143 -0.1397,-0.1524 -0.1016,-0.0445 -0.31115,-0.0508 v -0.127 q 0.15875,0.006 0.4064,0.0127 0.24765,0.006 0.5334,0.006 0.254,0 0.50165,-0.006 0.24765,-0.006 0.4064,-0.0127 z m -0.90805,5.67055 q -0.19685,0 -0.3175,-0.10795 -0.12065,-0.1016 -0.12065,-0.28575 0,-0.1778 0.1143,-0.2921 0.1143,-0.1143 0.3302,-0.1143 0.2032,0 0.3175,0.10795 0.12065,0.1143 0.12065,0.2921 0,0.18415 -0.127,0.2921 -0.12065,0.10795 -0.3175,0.10795 z"
         id="path932" />
    </g>
    <g
       aria-label="KHOA"
       id="text2652-1-5-7"
       style="font-weight:600;font-size:6.35px;line-height:1.25;font-family:'Playfair Display';-inkscape-font-specification:'Playfair Display Semi-Bold';letter-spacing:0px;word-spacing:0px;fill:#865300;stroke:#865300;stroke-width:0.264583"
       inkscape:export-filename="/home/hint/Lab/F/occult_app/packages/lasotuvi_library/assets/images/tu_hoa.png"
       inkscape:export-xdpi="152.31944"
       inkscape:export-ydpi="152.31944">
      <path
         d="m 86.564982,153.83094 v 0.127 q -0.20955,0.0381 -0.42545,0.15875 -0.2159,0.12065 -0.4445,0.3937 l -1.20015,1.4732 0.28575,-0.4572 1.51765,2.286 q 0.1016,0.14605 0.20955,0.23495 0.10795,0.0889 0.2794,0.1524 v 0.127 q -0.19685,-0.0127 -0.45085,-0.0127 -0.254,-0.006 -0.46355,-0.006 -0.12065,0 -0.3048,0.006 -0.1778,0 -0.45085,0.0127 v -0.127 q 0.254,-0.0127 0.3048,-0.0699 0.0508,-0.0635 -0.04445,-0.2159 l -0.9271,-1.4605 q -0.1016,-0.1651 -0.18415,-0.24765 -0.0762,-0.0825 -0.15875,-0.10795 -0.08255,-0.0318 -0.2032,-0.0381 v -0.127 q 0.2667,-0.0127 0.47625,-0.1397 0.20955,-0.127 0.4191,-0.37465 l 0.45085,-0.56515 q 0.23495,-0.2794 0.28575,-0.47625 0.0508,-0.19685 -0.05715,-0.3048 -0.10795,-0.10795 -0.36195,-0.1143 v -0.127 q 0.1397,0.006 0.2794,0.0127 0.1397,0 0.2794,0.006 0.14605,0 0.3048,0 0.18415,0 0.3302,-0.006 0.14605,-0.006 0.254,-0.0127 z m -2.1463,0 v 0.127 q -0.2032,0.006 -0.31115,0.0508 -0.1016,0.0381 -0.1397,0.1524 -0.0381,0.10795 -0.0381,0.3429 v 3.1496 q 0,0.2286 0.0381,0.3429 0.0381,0.1143 0.1397,0.1524 0.10795,0.0381 0.31115,0.0508 v 0.127 q -0.15875,-0.0127 -0.4064,-0.0127 -0.24765,-0.006 -0.50165,-0.006 -0.28575,0 -0.5334,0.006 -0.24765,0 -0.4064,0.0127 v -0.127 q 0.20955,-0.0127 0.31115,-0.0508 0.10795,-0.0381 0.1397,-0.1524 0.0381,-0.1143 0.0381,-0.3429 v -3.1496 q 0,-0.23495 -0.0381,-0.3429 -0.03175,-0.1143 -0.1397,-0.1524 -0.1016,-0.0444 -0.31115,-0.0508 v -0.127 q 0.15875,0.006 0.4064,0.0127 0.24765,0.006 0.5334,0.006 0.254,0 0.50165,-0.006 0.24765,-0.006 0.4064,-0.0127 z"
         id="path935" />
      <path
         d="m 89.66378,158.32674 v -0.127 q 0.20955,-0.0127 0.31115,-0.0508 0.10795,-0.0381 0.1397,-0.1524 0.0381,-0.1143 0.0381,-0.3429 v -3.1496 q 0,-0.23495 -0.0381,-0.3429 -0.03175,-0.1143 -0.1397,-0.1524 -0.1016,-0.0444 -0.31115,-0.0508 v -0.127 q 0.17145,0.006 0.42545,0.0127 0.254,0.006 0.508,0.006 0.2794,0 0.5207,-0.006 0.24765,-0.006 0.3937,-0.0127 v 0.127 q -0.2032,0.006 -0.31115,0.0508 -0.1016,0.0381 -0.1397,0.1524 -0.0381,0.10795 -0.0381,0.3429 v 3.1496 q 0,0.2286 0.0381,0.3429 0.0381,0.1143 0.1397,0.1524 0.10795,0.0381 0.31115,0.0508 v 0.127 q -0.14605,-0.0127 -0.3937,-0.0127 -0.2413,-0.006 -0.5207,-0.006 -0.254,0 -0.508,0.006 -0.254,0 -0.42545,0.0127 z m -2.6797,0 v -0.127 q 0.20955,-0.0127 0.31115,-0.0508 0.10795,-0.0381 0.1397,-0.1524 0.0381,-0.1143 0.0381,-0.3429 v -3.1496 q 0,-0.23495 -0.0381,-0.3429 -0.03175,-0.1143 -0.1397,-0.1524 -0.1016,-0.0444 -0.31115,-0.0508 v -0.127 q 0.15875,0.006 0.4064,0.0127 0.24765,0.006 0.5334,0.006 0.254,0 0.50165,-0.006 0.24765,-0.006 0.4064,-0.0127 v 0.127 q -0.2032,0.006 -0.31115,0.0508 -0.1016,0.0381 -0.1397,0.1524 -0.0381,0.10795 -0.0381,0.3429 v 3.1496 q 0,0.2286 0.0381,0.3429 0.0381,0.1143 0.1397,0.1524 0.10795,0.0381 0.31115,0.0508 v 0.127 q -0.15875,-0.0127 -0.4064,-0.0127 -0.24765,-0.006 -0.50165,-0.006 -0.28575,0 -0.5334,0.006 -0.24765,0 -0.4064,0.0127 z m 1.00965,-2.1971 v -0.127 h 2.50825 v 0.127 z"
         id="path937" />
      <path
         d="m 94.159566,153.74204 q 0.6477,0 1.13665,0.27305 0.48895,0.27305 0.75565,0.7874 0.27305,0.508 0.27305,1.23825 0,0.7112 -0.2794,1.2446 -0.27305,0.5334 -0.76835,0.83185 -0.48895,0.29845 -1.12395,0.29845 -0.6477,0 -1.13665,-0.27305 -0.48895,-0.27305 -0.762,-0.7874 -0.2667,-0.51435 -0.2667,-1.23825 0,-0.7112 0.2794,-1.2446 0.2794,-0.5334 0.76835,-0.83185 0.48895,-0.29845 1.12395,-0.29845 z m -0.0254,0.1143 q -0.37465,0 -0.65405,0.28575 -0.27305,0.28575 -0.42545,0.7874 -0.1524,0.50165 -0.1524,1.16205 0,0.6731 0.17145,1.17475 0.17145,0.4953 0.46355,0.76835 0.2921,0.2667 0.64135,0.2667 0.37465,0 0.6477,-0.28575 0.2794,-0.28575 0.4318,-0.7874 0.1524,-0.508 0.1524,-1.16205 0,-0.67945 -0.17145,-1.17475 -0.17145,-0.4953 -0.46355,-0.762 -0.28575,-0.27305 -0.64135,-0.27305 z"
         id="path939" />
      <path
         d="m 98.718856,153.81189 1.543054,3.98145 q 0.0952,0.2286 0.2032,0.3175 0.1143,0.0825 0.20955,0.0889 v 0.127 q -0.1651,-0.0127 -0.40005,-0.0127 -0.2286,-0.006 -0.469904,-0.006 -0.2794,0 -0.5207,0.006 -0.2413,0 -0.3937,0.0127 v -0.127 q 0.32385,-0.0127 0.41275,-0.10795 0.0889,-0.1016 -0.0381,-0.42545 l -1.1176,-3.01625 0.1143,-0.1397 -1.016,2.63525 q -0.12065,0.3175 -0.14605,0.5207 -0.0254,0.2032 0.03175,0.3175 0.05715,0.1143 0.1905,0.1651 0.13335,0.0444 0.3302,0.0508 v 0.127 q -0.2032,-0.0127 -0.3937,-0.0127 -0.1905,-0.006 -0.381,-0.006 -0.1397,0 -0.2667,0.006 -0.12065,0 -0.2159,0.0127 v -0.127 q 0.1397,-0.0317 0.27305,-0.1651 0.1397,-0.13335 0.2667,-0.46355 l 1.45415,-3.7592 q 0.0762,0.006 0.1651,0.006 0.0889,0 0.1651,-0.006 z m 0.55245,2.68605 v 0.127 h -1.8923 l 0.0635,-0.127 z"
         id="path941" />
    </g>
  </g>
</svg>
