<?xml version="1.0" encoding="UTF-8" standalone="no"?>
<!-- Created with Inkscape (http://www.inkscape.org/) -->

<svg
   version="1.1"
   id="svg2"
   width="56.000004"
   height="56"
   viewBox="0 0 56.000002 56"
   xmlns="http://www.w3.org/2000/svg"
   xmlns:svg="http://www.w3.org/2000/svg">
  <defs
     id="defs6" />
  <g
     id="g8"
     transform="translate(-82.193989,-1.0372423)">
    <path
       style="fill:#827568;fill-opacity:1;stroke:none;stroke-width:0.109298"
       d="m 108.61698,1.1464361 c -2.45574,0.3220243 -4.84116,0.5560453 -7.21826,1.3376332 -7.325014,2.4084696 -13.481018,7.8896637 -16.699512,14.8911527 -5.060576,11.008768 -2.276799,24.420357 6.747042,32.531603 3.622261,3.256011 8.155657,5.477841 12.90539,6.486244 2.75716,0.585359 5.72638,0.826865 8.53068,0.491968 3.18653,-0.380663 6.26425,-1.174759 9.18689,-2.514891 9.52668,-4.368183 15.36374,-13.84665 16.0672,-24.105886 C 139.05565,16.858787 128.85284,4.2906208 115.83524,1.6898849 113.53787,1.230901 110.95876,0.83934903 108.61698,1.1464361 m -0.65621,2.0601836 c 14.09247,-1.6615454 28.1075,10.5425233 28.1075,24.7638283 0,5.930923 -1.36874,11.235199 -4.77499,16.165911 -0.8113,1.174432 -1.76225,2.269126 -2.77138,3.276874 -0.30886,0.308464 -0.72249,0.892839 -1.20305,0.905401 -0.40969,0.01071 -0.85394,-0.369523 -1.20304,-0.549532 -0.86926,-0.448058 -1.74999,-0.875035 -2.62482,-1.311951 l -4.37471,-2.184583 c -0.72325,-0.36122 -1.58944,-0.665096 -2.07919,-1.342098 -0.68793,-0.951167 -0.63729,-3.129634 -0.40575,-4.255567 0.15978,-0.777602 0.93553,-1.511622 1.34204,-2.184583 0.71811,-1.188849 1.07553,-2.814943 1.90781,-3.891178 0.63674,-0.823588 1.45558,-1.176617 1.86789,-2.225653 0.5254,-1.336528 0.48407,-4.181073 0.12753,-5.570685 -0.16733,-0.652317 -0.69175,-1.19748 -0.77717,-1.856895 -0.47575,-3.67294 0.77585,-7.247572 -1.90661,-10.376768 -0.4974,-0.580236 -1.08099,-1.068895 -1.71707,-1.490356 -0.81128,-0.537592 -1.701,-0.908349 -2.62482,-1.2027872 -5.04721,-1.6086504 -12.87892,-0.6749053 -15.070429,4.8777252 -1.048946,2.658092 -0.228801,5.451954 -0.583697,8.192186 -0.08545,0.659415 -0.609836,1.204578 -0.777164,1.856895 -0.341015,1.328991 -0.340901,3.804778 0,5.133769 0.225736,0.880168 0.827581,1.415609 1.240665,2.184582 0.543445,1.011571 0.779465,2.227946 1.276975,3.276874 0.49762,1.049365 1.38372,1.984584 1.791,3.058416 0.31772,0.837787 0.21087,2.506917 0.0562,3.386102 -0.21523,1.224131 -1.2645,1.741222 -2.26074,2.269782 -1.721654,0.913374 -3.442117,1.84499 -5.14027,2.801072 -0.633569,0.356742 -1.783788,1.298297 -2.515461,1.293273 -0.441439,-0.0031 -0.811123,-0.511739 -1.093672,-0.793441 -0.919184,-0.916432 -1.757219,-1.905065 -2.528111,-2.949186 -3.317696,-4.493468 -5.018255,-9.837175 -5.018255,-15.401308 0,-9.536358 5.23959,-18.349686 13.670951,-22.9043982 3.132298,-1.6921235 6.550798,-2.5377537 10.061828,-2.9517211 z"
       id="path971" />
    <path
       style="fill:#827568;fill-opacity:1;stroke:none;stroke-width:0.109325"
       d="m 173.57648,2.399747 c -2.37992,0.3118736 -4.69341,0.5337983 -7.00364,1.2674073 -7.42352,2.3572733 -13.67899,7.8964927 -16.92816,14.9599477 -5.11457,11.118661 -2.18418,24.693435 6.97148,32.843505 3.59147,3.196963 8.21585,5.30348 12.91135,6.235233 2.73634,0.543044 5.65182,0.75875 8.42625,0.427598 13.72505,-1.6384 24.55509,-12.828047 25.16507,-26.727652 0.58797,-13.402214 -9.12859,-25.8289726 -22.31985,-28.4626381 -2.29872,-0.4589435 -4.87934,-0.85046 -7.2225,-0.5434009 m 8.42626,40.583307 c 1.74926,0 3.50411,-0.04119 5.25272,0.0019 1.77324,0.04338 3.81897,0.07637 4.90989,-1.639935 0.88607,-1.394188 0.12377,-2.67904 -0.59597,-3.931897 -1.04124,-1.812719 -2.0003,-3.708774 -2.70614,-5.679413 -2.25101,-6.285477 -1.0652,-14.368926 -7.40766,-18.491393 -0.89252,-0.580098 -1.82478,-1.017445 -2.84522,-1.322179 -1.25519,-0.374819 -2.62714,-0.609641 -3.93956,-0.609641 -1.22366,0 -2.55577,0.21039 -3.72068,0.582839 -0.92174,0.294696 -1.82937,0.670553 -2.62636,1.226109 -2.64158,1.841418 -4.24628,4.681238 -4.87531,7.801529 -0.31296,1.552661 -0.27215,3.135583 -0.53446,4.696439 -0.34274,2.039236 -1.02078,3.993944 -1.81405,5.897855 -0.89231,2.141907 -2.04988,4.175566 -3.31929,6.116287 -0.61104,0.934156 -1.45138,1.915934 -0.79762,3.058044 0.63004,1.100714 2.08881,1.516947 3.24277,1.804958 2.92916,0.731006 5.97509,0.488758 8.97341,0.488758 -0.29109,0.90707 -1.04847,1.137305 -1.86034,1.483092 -1.42338,0.606169 -2.84687,1.212337 -4.26784,1.824179 -1.34098,0.577443 -2.79314,1.058554 -4.04898,1.806712 -0.41694,0.248369 -1.14722,1.06991 -1.64148,1.010933 -1.01597,-0.121339 -2.36054,-2.301029 -2.94048,-3.066767 -2.57243,-3.396509 -4.32208,-7.365989 -5.00009,-11.577269 -0.46047,-2.860128 -0.46374,-6.002595 0.10522,-8.846782 0.69494,-3.474053 1.9596,-6.763753 3.93464,-9.720538 6.58781,-9.8626077 19.25849,-13.8651493 30.38322,-10.0106108 2.95193,1.0227966 5.72668,2.6278097 8.09796,4.6589428 2.52317,2.161235 4.68083,4.798799 6.20939,7.754493 3.72768,7.208387 3.81183,15.807458 0.43214,23.154541 -1.06215,2.309228 -2.58905,4.434422 -4.26521,6.334729 -0.45481,0.51552 -1.33037,1.727085 -2.04803,1.837507 -0.61599,0.09477 -1.75802,-1.305493 -2.29806,-1.65271 -1.825,-1.173344 -3.71938,-2.259204 -5.58103,-3.374009 -0.73516,-0.440153 -1.93979,-0.88926 -2.4075,-1.616443 z"
       id="path1404" />
  </g>
</svg>
