<?xml version="1.0" encoding="UTF-8" standalone="no"?>
<!-- Created with Inkscape (http://www.inkscape.org/) -->

<svg
   version="1.1"
   id="svg2"
   width="123.57362"
   height="59.990768"
   viewBox="0 0 123.57362 59.990768"
   sodipodi:docname="user.svg"
   inkscape:version="1.1.2 (0a00cf5339, 2022-02-04)"
   xmlns:inkscape="http://www.inkscape.org/namespaces/inkscape"
   xmlns:sodipodi="http://sodipodi.sourceforge.net/DTD/sodipodi-0.dtd"
   xmlns="http://www.w3.org/2000/svg"
   xmlns:svg="http://www.w3.org/2000/svg">
  <defs
     id="defs6" />
  <sodipodi:namedview
     id="namedview4"
     pagecolor="#ffffff"
     bordercolor="#666666"
     borderopacity="1.0"
     inkscape:pageshadow="2"
     inkscape:pageopacity="0.0"
     inkscape:pagecheckerboard="0"
     showgrid="false"
     inkscape:zoom="2.9897819"
     inkscape:cx="87.130102"
     inkscape:cy="58.365462"
     inkscape:window-width="1366"
     inkscape:window-height="704"
     inkscape:window-x="0"
     inkscape:window-y="0"
     inkscape:window-maximized="1"
     inkscape:current-layer="g8" />
  <g
     inkscape:groupmode="layer"
     inkscape:label="Image"
     id="g8"
     transform="translate(-82.193989,-1.0372423)">
    <path
       style="fill:#827568;fill-opacity:1;stroke:none;stroke-width:0.114558"
       d="m 109.87106,1.1517637 c -2.57229,0.337736 -5.07093,0.583175 -7.56085,1.402897 -7.67267,2.52598 -14.12085,8.2746043 -17.4921,15.6176993 -5.30076,11.545891 -2.38486,25.611838 7.06727,34.118836 3.79418,3.414873 8.54274,5.745107 13.5179,6.802711 2.88802,0.613919 5.99817,0.867208 8.93557,0.515971 3.33777,-0.399236 6.56156,-1.232076 9.62291,-2.637594 9.97884,-4.581308 16.09294,-14.522234 16.82978,-25.282024 0.96287,-14.059532 -9.72418,-27.2409053 -23.35962,-29.9685323 -2.40641,-0.481378 -5.10793,-0.89203398 -7.56086,-0.569964 m -0.68735,2.160701 c 14.76132,-1.742613 29.44153,11.0568983 29.44153,25.9720673 0,6.220296 -1.4337,11.78337 -5.00162,16.954654 -0.8498,1.231733 -1.84588,2.379838 -2.90291,3.436754 -0.32352,0.323514 -0.75678,0.936401 -1.26015,0.949576 -0.42913,0.01123 -0.89447,-0.387552 -1.26014,-0.576344 -0.91051,-0.469919 -1.83305,-0.917728 -2.7494,-1.375962 l -4.58234,-2.291169 c -0.75758,-0.378845 -1.66488,-0.697547 -2.17787,-1.40758 -0.72058,-0.997575 -0.66754,-3.28233 -0.42501,-4.463198 0.16737,-0.815542 0.97993,-1.585375 1.40574,-2.29117 0.75219,-1.246854 1.12657,-2.952286 1.99836,-4.081031 0.66696,-0.863771 1.52466,-1.234024 1.95654,-2.334243 0.55034,-1.401738 0.50704,-4.38507 0.13358,-5.842482 -0.17527,-0.684144 -0.72458,-1.255905 -0.81405,-1.947494 -0.49833,-3.852144 0.81267,-7.601184 -1.9971,-10.883055 -0.52101,-0.608546 -1.1323,-1.121047 -1.79857,-1.563071 -0.84979,-0.563822 -1.78173,-0.952668 -2.7494,-1.261472 -5.28676,-1.6871373 -13.49018,-0.7078343 -15.7857,5.115712 -1.09873,2.787781 -0.23966,5.717957 -0.6114,8.591886 -0.0895,0.691589 -0.63878,1.26335 -0.81405,1.947494 -0.3572,1.393833 -0.35708,3.990415 0,5.384248 0.23645,0.923112 0.86686,1.484678 1.29955,2.291169 0.56924,1.060926 0.81646,2.336649 1.33758,3.436754 0.52124,1.100564 1.4494,2.081413 1.87601,3.207638 0.3328,0.878663 0.22087,2.629231 0.0589,3.551312 -0.22545,1.283857 -1.32452,1.826177 -2.36804,2.380525 -1.80337,0.957938 -3.60549,1.935008 -5.38424,2.937738 -0.66364,0.374148 -1.86845,1.361642 -2.63485,1.356372 -0.46239,-0.0032 -0.84962,-0.536706 -1.14558,-0.832153 -0.96281,-0.961145 -1.84062,-1.998014 -2.6481,-3.093078 -3.47516,-4.712707 -5.25643,-10.317136 -5.25643,-16.152745 0,-10.001642 5.48827,-19.244976 14.3198,-24.0219153 3.28096,-1.774683 6.86171,-2.661572 10.53938,-3.095737 z"
       id="path971"
       inkscape:export-filename="/home/hint/Lab/F/occult_app/docs/design/icons/man.png"
       inkscape:export-xdpi="75.188652"
       inkscape:export-ydpi="75.188652" />
    <path
       style="fill:#827568;stroke:none;stroke-width:0.114558;fill-opacity:1"
       d="m 174.81477,2.4050842 c -2.49141,0.327119 -4.91329,0.559892 -7.33174,1.329362 -7.7713,2.472504 -14.31982,8.2824968 -17.72121,15.6912348 -5.35417,11.662175 -2.2865,25.900525 7.29808,34.448995 3.75972,3.35324 8.60074,5.56273 13.51621,6.54003 2.86454,0.56959 5.9166,0.79584 8.821,0.4485 14.36804,-1.71849 25.70544,-13.45512 26.34399,-28.03418 0.61552,-14.057355 -9.55624,-27.0915708 -23.36547,-29.8539778 -2.40641,-0.481378 -5.10793,-0.892033 -7.56086,-0.569964 m 8.82101,42.5671418 c 1.83121,0 3.66827,-0.0432 5.4988,0.002 1.85631,0.0455 3.99787,0.0801 5.1399,-1.7201 0.92758,-1.46234 0.12957,-2.81 -0.62389,-4.1241 -1.09002,-1.90133 -2.09401,-3.89007 -2.83291,-5.95704 -2.35647,-6.59273 -1.11511,-15.071322 -7.75469,-19.395308 -0.93434,-0.608455 -1.91027,-1.067181 -2.97852,-1.386811 -1.31399,-0.393141 -2.75021,-0.639442 -4.12411,-0.639442 -1.28099,0 -2.67551,0.220674 -3.89499,0.61133 -0.96492,0.309101 -1.91507,0.703331 -2.7494,1.286045 -2.76533,1.931432 -4.44521,4.910071 -5.1037,8.182891 -0.32763,1.62856 -0.2849,3.28886 -0.5595,4.926015 -0.3588,2.13892 -1.0686,4.18918 -1.89904,6.18616 -0.93411,2.24661 -2.14591,4.37968 -3.47479,6.41527 -0.63966,0.97982 -1.51937,2.00959 -0.83498,3.20753 0.65955,1.15452 2.18666,1.5911 3.39468,1.89319 3.06639,0.76674 6.25501,0.51265 9.3938,0.51265 -0.30473,0.95141 -1.09759,1.1929 -1.9475,1.55559 -1.49006,0.6358 -2.98024,1.2716 -4.46778,1.91335 -1.4038,0.60567 -2.92399,1.1103 -4.23866,1.89503 -0.43647,0.26051 -1.20096,1.12221 -1.71838,1.06035 -1.06356,-0.12727 -2.47112,-2.41351 -3.07823,-3.21668 -2.69295,-3.56254 -4.52456,-7.72606 -5.23433,-12.1432 -0.48205,-2.99994 -0.48547,-6.29602 0.11014,-9.27924 0.7275,-3.643875 2.05141,-7.094385 4.11897,-10.195707 6.89643,-10.3447218 20.1607,-14.5429198 31.8066,-10.4999598 3.09022,1.072794 5.99496,2.756265 8.47733,4.8866858 2.64137,2.266883 4.90012,5.033379 6.50028,8.133556 3.90232,7.560755 3.99041,16.580175 0.45239,24.286405 -1.11191,2.42211 -2.71034,4.65119 -4.46503,6.64439 -0.47611,0.54072 -1.39269,1.81151 -2.14397,1.92733 -0.64485,0.0994 -1.84038,-1.36931 -2.40572,-1.7335 -1.9105,-1.2307 -3.89362,-2.36964 -5.84249,-3.53894 -0.7696,-0.46167 -2.03066,-0.93273 -2.52028,-1.69546 z"
       id="path1404"
       inkscape:export-filename="/home/hint/Lab/F/occult_app/docs/design/icons/girl.png"
       inkscape:export-xdpi="75.188652"
       inkscape:export-ydpi="75.188652" />
  </g>
</svg>
