<?xml version="1.0" encoding="UTF-8" standalone="no"?>
<svg
   height="48"
   viewBox="0 96 960 960"
   width="48"
   version="1.1"
   id="svg4"
   sodipodi:docname="water_ec_FILL0_wght400_GRAD0_opsz48.svg"
   inkscape:version="1.1.2 (0a00cf5339, 2022-02-04)"
   inkscape:export-filename="/home/hint/Lab/F/occult_app/docs/design/icons/water_ec.png"
   inkscape:export-xdpi="96"
   inkscape:export-ydpi="96"
   xmlns:inkscape="http://www.inkscape.org/namespaces/inkscape"
   xmlns:sodipodi="http://sodipodi.sourceforge.net/DTD/sodipodi-0.dtd"
   xmlns="http://www.w3.org/2000/svg"
   xmlns:svg="http://www.w3.org/2000/svg">
  <defs
     id="defs8" />
  <sodipodi:namedview
     id="namedview6"
     pagecolor="#ffffff"
     bordercolor="#666666"
     borderopacity="1.0"
     inkscape:pageshadow="2"
     inkscape:pageopacity="0.0"
     inkscape:pagecheckerboard="0"
     showgrid="false"
     inkscape:zoom="2.5833333"
     inkscape:cx="41.225807"
     inkscape:cy="71.032259"
     inkscape:window-width="1366"
     inkscape:window-height="704"
     inkscape:window-x="0"
     inkscape:window-y="0"
     inkscape:window-maximized="1"
     inkscape:current-layer="svg4" />
  <path
     d="M450 806h25l146-220H510V426h-25L339 646h111v160Zm30 170q-137 0-228.5-94T160 648q0-100 79.5-217.5T480 176q161 137 240.5 254.5T800 648q0 140-91.5 234T480 976Zm0-60q112 0 186-76.5T740 648q0-79-66.5-179.5T480 256Q353 368 286.5 468.5T220 648q0 115 74 191.5T480 916Zm0-340Z"
     id="path2"
     style="fill:#865300;fill-opacity:1" />
</svg>
